<?xml version="1.0" encoding="UTF-8" standalone="no"?>
<!-- Generator: Adobe Illustrator 15.0.0, SVG Export Plug-In . SVG Version: 6.00 Build 0)  -->

<svg
   xmlns:dc="http://purl.org/dc/elements/1.1/"
   xmlns:cc="http://creativecommons.org/ns#"
   xmlns:rdf="http://www.w3.org/1999/02/22-rdf-syntax-ns#"
   xmlns:svg="http://www.w3.org/2000/svg"
   xmlns="http://www.w3.org/2000/svg"
   xmlns:sodipodi="http://sodipodi.sourceforge.net/DTD/sodipodi-0.dtd"
   xmlns:inkscape="http://www.inkscape.org/namespaces/inkscape"
   version="1.1"
   id="Layer_1"
   x="0px"
   y="0px"
   width="49.986191"
   height="50.007442"
   viewBox="0 0 49.986191 50.007443"
   xml:space="preserve"
   inkscape:version="0.92.2 (5c3e80d, 2017-08-06)"
   sodipodi:docname="convert.svg"><metadata
     id="metadata3124"><rdf:RDF><cc:Work
         rdf:about=""><dc:format>image/svg+xml</dc:format><dc:type
           rdf:resource="http://purl.org/dc/dcmitype/StillImage" /><dc:title /></cc:Work></rdf:RDF></metadata><defs
     id="defs3122" /><sodipodi:namedview
     pagecolor="#ffffff"
     bordercolor="#666666"
     borderopacity="1"
     objecttolerance="10"
     gridtolerance="10"
     guidetolerance="10"
     inkscape:pageopacity="0"
     inkscape:pageshadow="2"
     inkscape:window-width="1280"
     inkscape:window-height="656"
     id="namedview3120"
     showgrid="false"
     fit-margin-top="0"
     fit-margin-left="0"
     fit-margin-right="0"
     fit-margin-bottom="0"
     inkscape:zoom="3.3712566"
     inkscape:cx="-40.705005"
     inkscape:cy="-9.116783"
     inkscape:window-x="0"
     inkscape:window-y="27"
     inkscape:window-maximized="1"
     inkscape:current-layer="g3759" /><g
     id="g3759"
     transform="translate(99.742959,18.363414)"><path
       inkscape:connector-curvature="0"
       id="path3106"
       d="M -64.998702,11.680962 V -2.8676342 l 0.0066,-0.048537 -0.0066,9.48e-4 v -9.48e-4 l -0.0145,0.00189 -14.15486,1.8956646 h -9.49e-4 V 10.476501 c -0.560523,-0.179662 -1.190857,-0.251339 -1.847649,-0.18715 -2.079783,0.20191 -3.637216,1.682746 -3.479575,3.305762 0.158114,1.625128 1.970859,2.77874 4.050166,2.576828 2.080959,-0.201683 3.638382,-1.682045 3.480741,-3.307639 -0.0038,-0.02806 0.0038,-0.08058 0.0038,-0.08058 V 2.8123351 l 9.755911,-1.4248483 v 7.9857886 c -0.560058,-0.179188 -1.189919,-0.2520406 -1.847886,-0.1883266 -2.079772,0.2016836 -3.636978,1.6832212 -3.480267,3.3076402 0.158806,1.625593 1.972025,2.778038 4.050632,2.576354 2.079782,-0.203077 3.638381,-1.682748 3.479565,-3.307166 -0.0019,-0.02721 0.0048,-0.08086 0.0048,-0.08086 z"
       style="fill:#000000;fill-opacity:1;stroke:#000000;stroke-width:0.94798398" /><g
       transform="matrix(0.23423553,0,0,0.23423553,-146.0901,-71.014013)"
       id="g3108"
       style="fill:#1a1a1a;fill-opacity:1;stroke:#333333"><g
         id="g3110"
         style="fill:#1a1a1a;fill-opacity:1;stroke:#333333"><path
           inkscape:connector-curvature="0"
           id="path3112"
           d="m 233.292,305.384 c 10.721,-29.585 39.098,-50.782 72.338,-50.782 33.24,0 61.619,21.197 72.34,50.782 h 13.431 c -11.215,-36.732 -45.417,-63.531 -85.771,-63.531 -40.354,0 -74.554,26.799 -85.771,63.531 z"
           style="fill:#1a1a1a;fill-opacity:1;stroke:#333333" /><path
           inkscape:connector-curvature="0"
           id="path3114"
           d="m 377.97,357.654 c -10.721,29.585 -39.1,50.783 -72.34,50.783 -33.24,0 -61.618,-21.198 -72.338,-50.783 l -13.432,10e-4 c 11.216,36.731 45.417,63.53 85.771,63.531 40.354,-10e-4 74.556,-26.8 85.771,-63.531 z"
           style="fill:#1a1a1a;fill-opacity:1;stroke:#333333" /></g><polygon
         id="polygon3116"
         points="248.511,364.322 203.389,364.322 225.95,328.21 "
         style="fill:#1a1a1a;fill-opacity:1;stroke:#333333" /><polygon
         id="polygon3118"
         points="360.624,299.776 405.746,299.776 383.184,335.889 "
         style="fill:#1a1a1a;fill-opacity:1;stroke:#333333" /></g></g></svg>